<?xml version="1.0" encoding="UTF-8"?>
<svg xmlns="http://www.w3.org/2000/svg" xmlns:xlink="http://www.w3.org/1999/xlink" width="600pt" height="600pt" viewBox="0 0 600 600" version="1.1">
<defs>
<clipPath id="clip1">
  <path d="M 136.746094 46.453125 L 296.945312 46.453125 L 296.945312 203.648438 L 136.746094 203.648438 Z M 136.746094 46.453125 "/>
</clipPath>
<clipPath id="clip2">
  <path d="M 136.746094 46.453125 L 296.945312 46.453125 L 296.945312 203.648438 L 136.746094 203.648438 Z M 136.746094 46.453125 L 190.242188 163.75 C 190.242188 174.335938 181.660156 182.917969 171.074219 182.917969 C 160.488281 182.917969 151.910156 174.335938 151.910156 163.75 C 151.910156 153.167969 160.488281 144.585938 171.074219 144.585938 C 181.660156 144.585938 190.242188 153.167969 190.242188 163.75 Z M 136.746094 46.453125 "/>
</clipPath>
<clipPath id="clip3">
  <path d="M 136.746094 46.453125 L 296.945312 46.453125 L 296.945312 203.648438 L 136.746094 203.648438 Z M 136.746094 46.453125 L 281.78125 86.347656 C 281.78125 96.933594 273.199219 105.515625 262.613281 105.515625 C 252.03125 105.515625 243.449219 96.933594 243.449219 86.347656 C 243.449219 75.761719 252.03125 67.183594 262.613281 67.183594 C 273.199219 67.183594 281.78125 75.761719 281.78125 86.347656 Z M 136.746094 46.453125 "/>
</clipPath>
<clipPath id="clip4">
  <path d="M 122.78125 50.886719 L 252.722656 50.886719 L 252.722656 183.511719 L 122.78125 183.511719 Z M 122.78125 50.886719 "/>
</clipPath>
<clipPath id="clip5">
  <path d="M 122.78125 50.886719 L 252.722656 50.886719 L 252.722656 183.511719 L 122.78125 183.511719 Z M 122.78125 50.886719 L 190.242188 163.75 C 190.242188 174.335938 181.660156 182.917969 171.074219 182.917969 C 160.488281 182.917969 151.910156 174.335938 151.910156 163.75 C 151.910156 153.167969 160.488281 144.585938 171.074219 144.585938 C 181.660156 144.585938 190.242188 153.167969 190.242188 163.75 Z M 122.78125 50.886719 "/>
</clipPath>
<clipPath id="clip6">
  <path d="M 122.78125 50.886719 L 252.722656 50.886719 L 252.722656 183.511719 L 122.78125 183.511719 Z M 122.78125 50.886719 L 223.59375 70.644531 C 223.59375 81.230469 215.011719 89.808594 204.425781 89.808594 C 193.839844 89.808594 185.261719 81.230469 185.261719 70.644531 C 185.261719 60.058594 193.839844 51.476562 204.425781 51.476562 C 215.011719 51.476562 223.59375 60.058594 223.59375 70.644531 Z M 122.78125 50.886719 "/>
</clipPath>
<clipPath id="clip7">
  <path d="M 140.25 121.164062 L 281.382812 121.164062 L 281.382812 261.699219 L 140.25 261.699219 Z M 140.25 121.164062 "/>
</clipPath>
<clipPath id="clip8">
  <path d="M 140.25 121.164062 L 281.382812 121.164062 L 281.382812 261.699219 L 140.25 261.699219 Z M 140.25 121.164062 L 190.242188 163.75 C 190.242188 174.335938 181.660156 182.917969 171.074219 182.917969 C 160.488281 182.917969 151.910156 174.335938 151.910156 163.75 C 151.910156 153.167969 160.488281 144.585938 171.074219 144.585938 C 181.660156 144.585938 190.242188 153.167969 190.242188 163.75 Z M 140.25 121.164062 "/>
</clipPath>
<clipPath id="clip9">
  <path d="M 140.25 121.164062 L 281.382812 121.164062 L 281.382812 261.699219 L 140.25 261.699219 Z M 140.25 121.164062 L 269.722656 219.109375 C 269.722656 229.691406 261.140625 238.273438 250.554688 238.273438 C 239.96875 238.273438 231.386719 229.691406 231.386719 219.109375 C 231.386719 208.523438 239.96875 199.941406 250.554688 199.941406 C 261.140625 199.941406 269.722656 208.523438 269.722656 219.109375 Z M 140.25 121.164062 "/>
</clipPath>
<clipPath id="clip10">
  <path d="M 125.507812 137.808594 L 249.683594 137.808594 L 249.683594 252.066406 L 125.507812 252.066406 Z M 125.507812 137.808594 "/>
</clipPath>
<clipPath id="clip11">
  <path d="M 125.507812 137.808594 L 249.683594 137.808594 L 249.683594 252.066406 L 125.507812 252.066406 Z M 125.507812 137.808594 L 190.242188 163.75 C 190.242188 174.335938 181.660156 182.917969 171.074219 182.917969 C 160.488281 182.917969 151.910156 174.335938 151.910156 163.75 C 151.910156 153.167969 160.488281 144.585938 171.074219 144.585938 C 181.660156 144.585938 190.242188 153.167969 190.242188 163.75 Z M 125.507812 137.808594 "/>
</clipPath>
<clipPath id="clip12">
  <path d="M 125.507812 137.808594 L 249.683594 137.808594 L 249.683594 252.066406 L 125.507812 252.066406 Z M 125.507812 137.808594 L 223.28125 226.121094 C 223.28125 236.707031 214.699219 245.289062 204.113281 245.289062 C 193.527344 245.289062 184.945312 236.707031 184.945312 226.121094 C 184.945312 215.535156 193.527344 206.953125 204.113281 206.953125 C 214.699219 206.953125 223.28125 215.535156 223.28125 226.121094 Z M 125.507812 137.808594 "/>
</clipPath>
<clipPath id="clip13">
  <path d="M 108.839844 90.746094 L 221.199219 90.746094 L 221.199219 176.960938 L 108.839844 176.960938 Z M 108.839844 90.746094 "/>
</clipPath>
<clipPath id="clip14">
  <path d="M 108.839844 90.746094 L 221.199219 90.746094 L 221.199219 176.960938 L 108.839844 176.960938 Z M 108.839844 90.746094 L 190.242188 163.75 C 190.242188 174.335938 181.660156 182.917969 171.074219 182.917969 C 160.488281 182.917969 151.910156 174.335938 151.910156 163.75 C 151.910156 153.167969 160.488281 144.585938 171.074219 144.585938 C 181.660156 144.585938 190.242188 153.167969 190.242188 163.75 Z M 108.839844 90.746094 "/>
</clipPath>
<clipPath id="clip15">
  <path d="M 108.839844 90.746094 L 221.199219 90.746094 L 221.199219 176.960938 L 108.839844 176.960938 Z M 108.839844 90.746094 L 178.128906 103.953125 C 178.128906 114.539062 169.546875 123.117188 158.960938 123.117188 C 148.375 123.117188 139.796875 114.539062 139.796875 103.953125 C 139.796875 93.367188 148.375 84.785156 158.960938 84.785156 C 169.546875 84.785156 178.128906 93.367188 178.128906 103.953125 Z M 108.839844 90.746094 "/>
</clipPath>
<clipPath id="clip16">
  <path d="M 157.878906 94.054688 L 281.023438 94.054688 L 281.023438 213.878906 L 157.878906 213.878906 Z M 157.878906 94.054688 "/>
</clipPath>
<clipPath id="clip17">
  <path d="M 157.878906 94.054688 L 281.023438 94.054688 L 281.023438 213.878906 L 157.878906 213.878906 Z M 157.878906 94.054688 L 190.242188 163.75 C 190.242188 174.335938 181.660156 182.917969 171.074219 182.917969 C 160.488281 182.917969 151.910156 174.335938 151.910156 163.75 C 151.910156 153.167969 160.488281 144.585938 171.074219 144.585938 C 181.660156 144.585938 190.242188 153.167969 190.242188 163.75 Z M 157.878906 94.054688 "/>
</clipPath>
<clipPath id="clip18">
  <path d="M 157.878906 94.054688 L 281.023438 94.054688 L 281.023438 213.878906 L 157.878906 213.878906 Z M 157.878906 94.054688 L 286.988281 144.179688 C 286.988281 154.765625 278.410156 163.347656 267.824219 163.347656 C 257.238281 163.347656 248.65625 154.765625 248.65625 144.179688 C 248.65625 133.597656 257.238281 125.015625 267.824219 125.015625 C 278.410156 125.015625 286.988281 133.597656 286.988281 144.179688 Z M 157.878906 94.054688 "/>
</clipPath>
<clipPath id="clip19">
  <path d="M 53.214844 130.386719 L 211.765625 130.386719 L 211.765625 293.425781 L 53.214844 293.425781 Z M 53.214844 130.386719 "/>
</clipPath>
<clipPath id="clip20">
  <path d="M 53.214844 130.386719 L 211.765625 130.386719 L 211.765625 293.425781 L 53.214844 293.425781 Z M 53.214844 130.386719 L 190.242188 163.75 C 190.242188 174.335938 181.660156 182.917969 171.074219 182.917969 C 160.488281 182.917969 151.910156 174.335938 151.910156 163.75 C 151.910156 153.167969 160.488281 144.585938 171.074219 144.585938 C 181.660156 144.585938 190.242188 153.167969 190.242188 163.75 Z M 53.214844 130.386719 "/>
</clipPath>
<clipPath id="clip21">
  <path d="M 53.214844 130.386719 L 211.765625 130.386719 L 211.765625 293.425781 L 53.214844 293.425781 Z M 53.214844 130.386719 L 113.070312 260.058594 C 113.070312 270.644531 104.488281 279.226562 93.902344 279.226562 C 83.316406 279.226562 74.738281 270.644531 74.738281 260.058594 C 74.738281 249.472656 83.316406 240.894531 93.902344 240.894531 C 104.488281 240.894531 113.070312 249.472656 113.070312 260.058594 Z M 53.214844 130.386719 "/>
</clipPath>
<linearGradient id="linear0" gradientUnits="userSpaceOnUse" x1="-0.255268" y1="2.536235" x2="-1.889277" y2="4.575407" >
<stop offset="0" style="stop-color:rgb(55.294118%,82.745098%,78.039216%);stop-opacity:0.8;"/>
<stop offset="1" style="stop-color:rgb(100%,92.941176%,43.529412%);stop-opacity:0.8;"/>
</linearGradient>
<clipPath id="clip22">
  <path d="M 137.628906 82.953125 L 254.4375 82.953125 L 254.4375 204.378906 L 137.628906 204.378906 Z M 137.628906 82.953125 "/>
</clipPath>
<clipPath id="clip23">
  <path d="M 137.628906 82.953125 L 254.4375 82.953125 L 254.4375 204.378906 L 137.628906 204.378906 Z M 137.628906 82.953125 L 190.242188 163.75 C 190.242188 174.335938 181.660156 182.917969 171.074219 182.917969 C 160.488281 182.917969 151.910156 174.335938 151.910156 163.75 C 151.910156 153.167969 160.488281 144.585938 171.074219 144.585938 C 181.660156 144.585938 190.242188 153.167969 190.242188 163.75 Z M 137.628906 82.953125 "/>
</clipPath>
<clipPath id="clip24">
  <path d="M 137.628906 82.953125 L 254.4375 82.953125 L 254.4375 204.378906 L 137.628906 204.378906 Z M 137.628906 82.953125 L 240.152344 123.578125 C 240.152344 134.164062 231.570312 142.746094 220.988281 142.746094 C 210.402344 142.746094 201.820312 134.164062 201.820312 123.578125 C 201.820312 112.992188 210.402344 104.410156 220.988281 104.410156 C 231.570312 104.410156 240.152344 112.992188 240.152344 123.578125 Z M 137.628906 82.953125 "/>
</clipPath>
<clipPath id="clip25">
  <path d="M 162.71875 112.90625 L 229.019531 112.90625 L 229.019531 219.367188 L 162.71875 219.367188 Z M 162.71875 112.90625 "/>
</clipPath>
<clipPath id="clip26">
  <path d="M 162.71875 112.90625 L 229.019531 112.90625 L 229.019531 219.367188 L 162.71875 219.367188 Z M 162.71875 112.90625 L 190.242188 163.75 C 190.242188 174.335938 181.660156 182.917969 171.074219 182.917969 C 160.488281 182.917969 151.910156 174.335938 151.910156 163.75 C 151.910156 153.167969 160.488281 144.585938 171.074219 144.585938 C 181.660156 144.585938 190.242188 153.167969 190.242188 163.75 Z M 162.71875 112.90625 "/>
</clipPath>
<clipPath id="clip27">
  <path d="M 162.71875 112.90625 L 229.019531 112.90625 L 229.019531 219.367188 L 162.71875 219.367188 Z M 162.71875 112.90625 L 239.828125 168.519531 C 239.828125 179.105469 231.246094 187.6875 220.660156 187.6875 C 210.078125 187.6875 201.496094 179.105469 201.496094 168.519531 C 201.496094 157.933594 210.078125 149.355469 220.660156 149.355469 C 231.246094 149.355469 239.828125 157.933594 239.828125 168.519531 Z M 162.71875 112.90625 "/>
</clipPath>
<clipPath id="clip28">
  <path d="M 188.289062 21.214844 L 278.753906 21.214844 L 278.753906 135.78125 L 188.289062 135.78125 Z M 188.289062 21.214844 "/>
</clipPath>
<clipPath id="clip29">
  <path d="M 188.289062 21.214844 L 278.753906 21.214844 L 278.753906 135.78125 L 188.289062 135.78125 Z M 188.289062 21.214844 L 281.78125 86.347656 C 281.78125 96.933594 273.199219 105.515625 262.613281 105.515625 C 252.03125 105.515625 243.449219 96.933594 243.449219 86.347656 C 243.449219 75.761719 252.03125 67.183594 262.613281 67.183594 C 273.199219 67.183594 281.78125 75.761719 281.78125 86.347656 Z M 188.289062 21.214844 "/>
</clipPath>
<clipPath id="clip30">
  <path d="M 188.289062 21.214844 L 278.753906 21.214844 L 278.753906 135.78125 L 188.289062 135.78125 Z M 188.289062 21.214844 L 223.59375 70.644531 C 223.59375 81.230469 215.011719 89.808594 204.425781 89.808594 C 193.839844 89.808594 185.261719 81.230469 185.261719 70.644531 C 185.261719 60.058594 193.839844 51.476562 204.425781 51.476562 C 215.011719 51.476562 223.59375 60.058594 223.59375 70.644531 Z M 188.289062 21.214844 "/>
</clipPath>
<clipPath id="clip31">
  <path d="M 199.6875 78.242188 L 313.484375 78.242188 L 313.484375 227.21875 L 199.6875 227.21875 Z M 199.6875 78.242188 "/>
</clipPath>
<clipPath id="clip32">
  <path d="M 199.6875 78.242188 L 313.484375 78.242188 L 313.484375 227.21875 L 199.6875 227.21875 Z M 199.6875 78.242188 L 281.78125 86.347656 C 281.78125 96.933594 273.199219 105.515625 262.613281 105.515625 C 252.03125 105.515625 243.449219 96.933594 243.449219 86.347656 C 243.449219 75.761719 252.03125 67.183594 262.613281 67.183594 C 273.199219 67.183594 281.78125 75.761719 281.78125 86.347656 Z M 199.6875 78.242188 "/>
</clipPath>
<clipPath id="clip33">
  <path d="M 199.6875 78.242188 L 313.484375 78.242188 L 313.484375 227.21875 L 199.6875 227.21875 Z M 199.6875 78.242188 L 269.722656 219.109375 C 269.722656 229.691406 261.140625 238.273438 250.554688 238.273438 C 239.96875 238.273438 231.386719 229.691406 231.386719 219.109375 C 231.386719 208.523438 239.96875 199.941406 250.554688 199.941406 C 261.140625 199.941406 269.722656 208.523438 269.722656 219.109375 Z M 199.6875 78.242188 "/>
</clipPath>
<clipPath id="clip34">
  <path d="M 185.671875 47.3125 L 297.933594 47.3125 L 297.933594 162.617188 L 185.671875 162.617188 Z M 185.671875 47.3125 "/>
</clipPath>
<clipPath id="clip35">
  <path d="M 185.671875 47.3125 L 297.933594 47.3125 L 297.933594 162.617188 L 185.671875 162.617188 Z M 185.671875 47.3125 L 281.78125 86.347656 C 281.78125 96.933594 273.199219 105.515625 262.613281 105.515625 C 252.03125 105.515625 243.449219 96.933594 243.449219 86.347656 C 243.449219 75.761719 252.03125 67.183594 262.613281 67.183594 C 273.199219 67.183594 281.78125 75.761719 281.78125 86.347656 Z M 185.671875 47.3125 "/>
</clipPath>
<clipPath id="clip36">
  <path d="M 185.671875 47.3125 L 297.933594 47.3125 L 297.933594 162.617188 L 185.671875 162.617188 Z M 185.671875 47.3125 L 240.152344 123.578125 C 240.152344 134.164062 231.570312 142.746094 220.988281 142.746094 C 210.402344 142.746094 201.820312 134.164062 201.820312 123.578125 C 201.820312 112.992188 210.402344 104.410156 220.988281 104.410156 C 231.570312 104.410156 240.152344 112.992188 240.152344 123.578125 Z M 185.671875 47.3125 "/>
</clipPath>
<clipPath id="clip37">
  <path d="M 61.964844 282.472656 L 203.539062 282.472656 L 203.539062 424.296875 L 61.964844 424.296875 Z M 61.964844 282.472656 "/>
</clipPath>
<clipPath id="clip38">
  <path d="M 61.964844 282.472656 L 203.539062 282.472656 L 203.539062 424.296875 L 61.964844 424.296875 Z M 61.964844 282.472656 L 121.671875 390.746094 C 121.671875 401.332031 113.089844 409.914062 102.503906 409.914062 C 91.917969 409.914062 83.339844 401.332031 83.339844 390.746094 C 83.339844 380.160156 91.917969 371.582031 102.503906 371.582031 C 113.089844 371.582031 121.671875 380.160156 121.671875 390.746094 Z M 61.964844 282.472656 "/>
</clipPath>
<clipPath id="clip39">
  <path d="M 61.964844 282.472656 L 203.539062 282.472656 L 203.539062 424.296875 L 61.964844 424.296875 Z M 61.964844 282.472656 L 182.164062 316.019531 C 182.164062 326.605469 173.582031 335.1875 162.996094 335.1875 C 152.410156 335.1875 143.828125 326.605469 143.828125 316.019531 C 143.828125 305.433594 152.410156 296.855469 162.996094 296.855469 C 173.582031 296.855469 182.164062 305.433594 182.164062 316.019531 Z M 61.964844 282.472656 "/>
</clipPath>
<clipPath id="clip40">
  <path d="M 6.1875 298.457031 L 136.8125 298.457031 L 136.8125 430.664062 L 6.1875 430.664062 Z M 6.1875 298.457031 "/>
</clipPath>
<clipPath id="clip41">
  <path d="M 6.1875 298.457031 L 136.8125 298.457031 L 136.8125 430.664062 L 6.1875 430.664062 Z M 6.1875 298.457031 L 121.671875 390.746094 C 121.671875 401.332031 113.089844 409.914062 102.503906 409.914062 C 91.917969 409.914062 83.339844 401.332031 83.339844 390.746094 C 83.339844 380.160156 91.917969 371.582031 102.503906 371.582031 C 113.089844 371.582031 121.671875 380.160156 121.671875 390.746094 Z M 6.1875 298.457031 "/>
</clipPath>
<clipPath id="clip42">
  <path d="M 6.1875 298.457031 L 136.8125 298.457031 L 136.8125 430.664062 L 6.1875 430.664062 Z M 6.1875 298.457031 L 59.65625 338.371094 C 59.65625 348.953125 51.078125 357.535156 40.492188 357.535156 C 29.90625 357.535156 21.324219 348.953125 21.324219 338.371094 C 21.324219 327.785156 29.90625 319.203125 40.492188 319.203125 C 51.078125 319.203125 59.65625 327.785156 59.65625 338.371094 Z M 6.1875 298.457031 "/>
</clipPath>
<clipPath id="clip43">
  <path d="M 205.117188 192.929688 L 348.449219 192.929688 L 348.449219 342.941406 L 205.117188 342.941406 Z M 205.117188 192.929688 "/>
</clipPath>
<clipPath id="clip44">
  <path d="M 205.117188 192.929688 L 348.449219 192.929688 L 348.449219 342.941406 L 205.117188 342.941406 Z M 205.117188 192.929688 L 322.171875 316.757812 C 322.171875 327.34375 313.59375 335.925781 303.007812 335.925781 C 292.421875 335.925781 283.839844 327.34375 283.839844 316.757812 C 283.839844 306.171875 292.421875 297.589844 303.007812 297.589844 C 313.59375 297.589844 322.171875 306.171875 322.171875 316.757812 Z M 205.117188 192.929688 "/>
</clipPath>
<clipPath id="clip45">
  <path d="M 205.117188 192.929688 L 348.449219 192.929688 L 348.449219 342.941406 L 205.117188 342.941406 Z M 205.117188 192.929688 L 269.722656 219.109375 C 269.722656 229.691406 261.140625 238.273438 250.554688 238.273438 C 239.96875 238.273438 231.386719 229.691406 231.386719 219.109375 C 231.386719 208.523438 239.96875 199.941406 250.554688 199.941406 C 261.140625 199.941406 269.722656 208.523438 269.722656 219.109375 Z M 205.117188 192.929688 "/>
</clipPath>
<clipPath id="clip46">
  <path d="M 476.160156 242.125 L 600 242.125 L 600 362.1875 L 476.160156 362.1875 Z M 476.160156 242.125 "/>
</clipPath>
<clipPath id="clip47">
  <path d="M 476.160156 242.125 L 601.671875 242.125 L 601.671875 362.1875 L 476.160156 362.1875 Z M 476.160156 242.125 L 578.675781 330.757812 C 578.675781 341.34375 570.09375 349.921875 559.507812 349.921875 C 548.921875 349.921875 540.34375 341.34375 540.34375 330.757812 C 540.34375 320.171875 548.921875 311.589844 559.507812 311.589844 C 570.09375 311.589844 578.675781 320.171875 578.675781 330.757812 Z M 476.160156 242.125 "/>
</clipPath>
<clipPath id="clip48">
  <path d="M 476.160156 242.125 L 601.671875 242.125 L 601.671875 362.1875 L 476.160156 362.1875 Z M 476.160156 242.125 L 537.484375 273.550781 C 537.484375 284.136719 528.902344 292.714844 518.320312 292.714844 C 507.734375 292.714844 499.152344 284.136719 499.152344 273.550781 C 499.152344 262.964844 507.734375 254.382812 518.320312 254.382812 C 528.902344 254.382812 537.484375 262.964844 537.484375 273.550781 Z M 476.160156 242.125 "/>
</clipPath>
<clipPath id="clip49">
  <path d="M 477.832031 280.789062 L 573.449219 280.789062 L 573.449219 395.566406 L 477.832031 395.566406 Z M 477.832031 280.789062 "/>
</clipPath>
<clipPath id="clip50">
  <path d="M 477.832031 280.789062 L 573.449219 280.789062 L 573.449219 395.566406 L 477.832031 395.566406 Z M 477.832031 280.789062 L 578.675781 330.757812 C 578.675781 341.34375 570.09375 349.921875 559.507812 349.921875 C 548.921875 349.921875 540.34375 341.34375 540.34375 330.757812 C 540.34375 320.171875 548.921875 311.589844 559.507812 311.589844 C 570.09375 311.589844 578.675781 320.171875 578.675781 330.757812 Z M 477.832031 280.789062 "/>
</clipPath>
<clipPath id="clip51">
  <path d="M 477.832031 280.789062 L 573.449219 280.789062 L 573.449219 395.566406 L 477.832031 395.566406 Z M 477.832031 280.789062 L 510.933594 345.59375 C 510.933594 356.179688 502.355469 364.761719 491.769531 364.761719 C 481.183594 364.761719 472.601562 356.179688 472.601562 345.59375 C 472.601562 335.007812 481.183594 326.425781 491.769531 326.425781 C 502.355469 326.425781 510.933594 335.007812 510.933594 345.59375 Z M 477.832031 280.789062 "/>
</clipPath>
<clipPath id="clip52">
  <path d="M 443.621094 253.386719 L 566.472656 253.386719 L 566.472656 365.761719 L 443.621094 365.761719 Z M 443.621094 253.386719 "/>
</clipPath>
<clipPath id="clip53">
  <path d="M 443.621094 253.386719 L 566.472656 253.386719 L 566.472656 365.761719 L 443.621094 365.761719 Z M 443.621094 253.386719 L 537.484375 273.550781 C 537.484375 284.136719 528.902344 292.714844 518.320312 292.714844 C 507.734375 292.714844 499.152344 284.136719 499.152344 273.550781 C 499.152344 262.964844 507.734375 254.382812 518.320312 254.382812 C 528.902344 254.382812 537.484375 262.964844 537.484375 273.550781 Z M 443.621094 253.386719 "/>
</clipPath>
<clipPath id="clip54">
  <path d="M 443.621094 253.386719 L 566.472656 253.386719 L 566.472656 365.761719 L 443.621094 365.761719 Z M 443.621094 253.386719 L 510.933594 345.59375 C 510.933594 356.179688 502.355469 364.761719 491.769531 364.761719 C 481.183594 364.761719 472.601562 356.179688 472.601562 345.59375 C 472.601562 335.007812 481.183594 326.425781 491.769531 326.425781 C 502.355469 326.425781 510.933594 335.007812 510.933594 345.59375 Z M 443.621094 253.386719 "/>
</clipPath>
<clipPath id="clip55">
  <path d="M 127.21875 28.714844 L 236.171875 28.714844 L 236.171875 145.886719 L 127.21875 145.886719 Z M 127.21875 28.714844 "/>
</clipPath>
<clipPath id="clip56">
  <path d="M 127.21875 28.714844 L 236.171875 28.714844 L 236.171875 145.886719 L 127.21875 145.886719 Z M 127.21875 28.714844 L 223.59375 70.644531 C 223.59375 81.230469 215.011719 89.808594 204.425781 89.808594 C 193.839844 89.808594 185.261719 81.230469 185.261719 70.644531 C 185.261719 60.058594 193.839844 51.476562 204.425781 51.476562 C 215.011719 51.476562 223.59375 60.058594 223.59375 70.644531 Z M 127.21875 28.714844 "/>
</clipPath>
<clipPath id="clip57">
  <path d="M 127.21875 28.714844 L 236.171875 28.714844 L 236.171875 145.886719 L 127.21875 145.886719 Z M 127.21875 28.714844 L 178.128906 103.953125 C 178.128906 114.539062 169.546875 123.117188 158.960938 123.117188 C 148.375 123.117188 139.796875 114.539062 139.796875 103.953125 C 139.796875 93.367188 148.375 84.785156 158.960938 84.785156 C 169.546875 84.785156 178.128906 93.367188 178.128906 103.953125 Z M 127.21875 28.714844 "/>
</clipPath>
<clipPath id="clip58">
  <path d="M 164.824219 35.972656 L 307.429688 35.972656 L 307.429688 178.855469 L 164.824219 178.855469 Z M 164.824219 35.972656 "/>
</clipPath>
<clipPath id="clip59">
  <path d="M 164.824219 35.972656 L 307.429688 35.972656 L 307.429688 178.855469 L 164.824219 178.855469 Z M 164.824219 35.972656 L 223.59375 70.644531 C 223.59375 81.230469 215.011719 89.808594 204.425781 89.808594 C 193.839844 89.808594 185.261719 81.230469 185.261719 70.644531 C 185.261719 60.058594 193.839844 51.476562 204.425781 51.476562 C 215.011719 51.476562 223.59375 60.058594 223.59375 70.644531 Z M 164.824219 35.972656 "/>
</clipPath>
<clipPath id="clip60">
  <path d="M 164.824219 35.972656 L 307.429688 35.972656 L 307.429688 178.855469 L 164.824219 178.855469 Z M 164.824219 35.972656 L 286.988281 144.179688 C 286.988281 154.765625 278.410156 163.347656 267.824219 163.347656 C 257.238281 163.347656 248.65625 154.765625 248.65625 144.179688 C 248.65625 133.597656 257.238281 125.015625 267.824219 125.015625 C 278.410156 125.015625 286.988281 133.597656 286.988281 144.179688 Z M 164.824219 35.972656 "/>
</clipPath>
<clipPath id="clip61">
  <path d="M 155.519531 52.710938 L 269.898438 52.710938 L 269.898438 141.515625 L 155.519531 141.515625 Z M 155.519531 52.710938 "/>
</clipPath>
<clipPath id="clip62">
  <path d="M 155.519531 52.710938 L 269.898438 52.710938 L 269.898438 141.515625 L 155.519531 141.515625 Z M 155.519531 52.710938 L 223.59375 70.644531 C 223.59375 81.230469 215.011719 89.808594 204.425781 89.808594 C 193.839844 89.808594 185.261719 81.230469 185.261719 70.644531 C 185.261719 60.058594 193.839844 51.476562 204.425781 51.476562 C 215.011719 51.476562 223.59375 60.058594 223.59375 70.644531 Z M 155.519531 52.710938 "/>
</clipPath>
<clipPath id="clip63">
  <path d="M 155.519531 52.710938 L 269.898438 52.710938 L 269.898438 141.515625 L 155.519531 141.515625 Z M 155.519531 52.710938 L 240.152344 123.578125 C 240.152344 134.164062 231.570312 142.746094 220.988281 142.746094 C 210.402344 142.746094 201.820312 134.164062 201.820312 123.578125 C 201.820312 112.992188 210.402344 104.410156 220.988281 104.410156 C 231.570312 104.410156 240.152344 112.992188 240.152344 123.578125 Z M 155.519531 52.710938 "/>
</clipPath>
<clipPath id="clip64">
  <path d="M 154 59.085938 L 271.089844 59.085938 L 271.089844 180.082031 L 154 180.082031 Z M 154 59.085938 "/>
</clipPath>
<clipPath id="clip65">
  <path d="M 154 59.085938 L 271.089844 59.085938 L 271.089844 180.082031 L 154 180.082031 Z M 154 59.085938 L 223.59375 70.644531 C 223.59375 81.230469 215.011719 89.808594 204.425781 89.808594 C 193.839844 89.808594 185.261719 81.230469 185.261719 70.644531 C 185.261719 60.058594 193.839844 51.476562 204.425781 51.476562 C 215.011719 51.476562 223.59375 60.058594 223.59375 70.644531 Z M 154 59.085938 "/>
</clipPath>
<clipPath id="clip66">
  <path d="M 154 59.085938 L 271.089844 59.085938 L 271.089844 180.082031 L 154 180.082031 Z M 154 59.085938 L 239.828125 168.519531 C 239.828125 179.105469 231.246094 187.6875 220.660156 187.6875 C 210.078125 187.6875 201.496094 179.105469 201.496094 168.519531 C 201.496094 157.933594 210.078125 149.355469 220.660156 149.355469 C 231.246094 149.355469 239.828125 157.933594 239.828125 168.519531 Z M 154 59.085938 "/>
</clipPath>
<clipPath id="clip67">
  <path d="M 193.230469 168.578125 L 261.441406 168.578125 L 261.441406 276.65625 L 193.230469 276.65625 Z M 193.230469 168.578125 "/>
</clipPath>
<clipPath id="clip68">
  <path d="M 193.230469 168.578125 L 261.441406 168.578125 L 261.441406 276.65625 L 193.230469 276.65625 Z M 193.230469 168.578125 L 269.722656 219.109375 C 269.722656 229.691406 261.140625 238.273438 250.554688 238.273438 C 239.96875 238.273438 231.386719 229.691406 231.386719 219.109375 C 231.386719 208.523438 239.96875 199.941406 250.554688 199.941406 C 261.140625 199.941406 269.722656 208.523438 269.722656 219.109375 Z M 193.230469 168.578125 "/>
</clipPath>
<clipPath id="clip69">
  <path d="M 193.230469 168.578125 L 261.441406 168.578125 L 261.441406 276.65625 L 193.230469 276.65625 Z M 193.230469 168.578125 L 223.28125 226.121094 C 223.28125 236.707031 214.699219 245.289062 204.113281 245.289062 C 193.527344 245.289062 184.945312 236.707031 184.945312 226.121094 C 184.945312 215.535156 193.527344 206.953125 204.113281 206.953125 C 214.699219 206.953125 223.28125 215.535156 223.28125 226.121094 Z M 193.230469 168.578125 "/>
</clipPath>
<clipPath id="clip70">
  <path d="M 241.609375 161.269531 L 324.308594 161.269531 L 324.308594 269.894531 L 241.609375 269.894531 Z M 241.609375 161.269531 "/>
</clipPath>
<clipPath id="clip71">
  <path d="M 241.609375 161.269531 L 324.308594 161.269531 L 324.308594 269.894531 L 241.609375 269.894531 Z M 241.609375 161.269531 L 269.722656 219.109375 C 269.722656 229.691406 261.140625 238.273438 250.554688 238.273438 C 239.96875 238.273438 231.386719 229.691406 231.386719 219.109375 C 231.386719 208.523438 239.96875 199.941406 250.554688 199.941406 C 261.140625 199.941406 269.722656 208.523438 269.722656 219.109375 Z M 241.609375 161.269531 "/>
</clipPath>
<clipPath id="clip72">
  <path d="M 241.609375 161.269531 L 324.308594 161.269531 L 324.308594 269.894531 L 241.609375 269.894531 Z M 241.609375 161.269531 L 334.527344 212.050781 C 334.527344 222.636719 325.945312 231.214844 315.359375 231.214844 C 304.777344 231.214844 296.195312 222.636719 296.195312 212.050781 C 296.195312 201.464844 304.777344 192.882812 315.359375 192.882812 C 325.945312 192.882812 334.527344 201.464844 334.527344 212.050781 Z M 241.609375 161.269531 "/>
</clipPath>
<clipPath id="clip73">
  <path d="M 200.699219 129.742188 L 317.683594 129.742188 L 317.683594 233.550781 L 200.699219 233.550781 Z M 200.699219 129.742188 "/>
</clipPath>
<clipPath id="clip74">
  <path d="M 200.699219 129.742188 L 317.683594 129.742188 L 317.683594 233.550781 L 200.699219 233.550781 Z M 200.699219 129.742188 L 269.722656 219.109375 C 269.722656 229.691406 261.140625 238.273438 250.554688 238.273438 C 239.96875 238.273438 231.386719 229.691406 231.386719 219.109375 C 231.386719 208.523438 239.96875 199.941406 250.554688 199.941406 C 261.140625 199.941406 269.722656 208.523438 269.722656 219.109375 Z M 200.699219 129.742188 "/>
</clipPath>
<clipPath id="clip75">
  <path d="M 200.699219 129.742188 L 317.683594 129.742188 L 317.683594 233.550781 L 200.699219 233.550781 Z M 200.699219 129.742188 L 286.988281 144.179688 C 286.988281 154.765625 278.410156 163.347656 267.824219 163.347656 C 257.238281 163.347656 248.65625 154.765625 248.65625 144.179688 C 248.65625 133.597656 257.238281 125.015625 267.824219 125.015625 C 278.410156 125.015625 286.988281 133.597656 286.988281 144.179688 Z M 200.699219 129.742188 "/>
</clipPath>
<clipPath id="clip76">
  <path d="M 124.121094 183.613281 L 289.433594 183.613281 L 289.433594 351.519531 L 124.121094 351.519531 Z M 124.121094 183.613281 "/>
</clipPath>
<clipPath id="clip77">
  <path d="M 124.121094 183.613281 L 289.433594 183.613281 L 289.433594 351.519531 L 124.121094 351.519531 Z M 124.121094 183.613281 L 269.722656 219.109375 C 269.722656 229.691406 261.140625 238.273438 250.554688 238.273438 C 239.96875 238.273438 231.386719 229.691406 231.386719 219.109375 C 231.386719 208.523438 239.96875 199.941406 250.554688 199.941406 C 261.140625 199.941406 269.722656 208.523438 269.722656 219.109375 Z M 124.121094 183.613281 "/>
</clipPath>
<clipPath id="clip78">
  <path d="M 124.121094 183.613281 L 289.433594 183.613281 L 289.433594 351.519531 L 124.121094 351.519531 Z M 124.121094 183.613281 L 182.164062 316.019531 C 182.164062 326.605469 173.582031 335.1875 162.996094 335.1875 C 152.410156 335.1875 143.828125 326.605469 143.828125 316.019531 C 143.828125 305.433594 152.410156 296.855469 162.996094 296.855469 C 173.582031 296.855469 182.164062 305.433594 182.164062 316.019531 Z M 124.121094 183.613281 "/>
</clipPath>
<linearGradient id="linear1" gradientUnits="userSpaceOnUse" x1="1.427593" y1="3.708319" x2="-0.426337" y2="5.760299" gradientTransform="matrix(1,0,0,1,0.000000000000000444,0)">
<stop offset="0" style="stop-color:rgb(55.294118%,82.745098%,78.039216%);stop-opacity:0.8;"/>
<stop offset="1" style="stop-color:rgb(100%,92.941176%,43.529412%);stop-opacity:0.8;"/>
</linearGradient>
<clipPath id="clip79">
  <path d="M 172.039062 105.78125 L 299.507812 105.78125 L 299.507812 236.910156 L 172.039062 236.910156 Z M 172.039062 105.78125 "/>
</clipPath>
<clipPath id="clip80">
  <path d="M 172.039062 105.78125 L 299.507812 105.78125 L 299.507812 236.910156 L 172.039062 236.910156 Z M 172.039062 105.78125 L 269.722656 219.109375 C 269.722656 229.691406 261.140625 238.273438 250.554688 238.273438 C 239.96875 238.273438 231.386719 229.691406 231.386719 219.109375 C 231.386719 208.523438 239.96875 199.941406 250.554688 199.941406 C 261.140625 199.941406 269.722656 208.523438 269.722656 219.109375 Z M 172.039062 105.78125 "/>
</clipPath>
<clipPath id="clip81">
  <path d="M 172.039062 105.78125 L 299.507812 105.78125 L 299.507812 236.910156 L 172.039062 236.910156 Z M 172.039062 105.78125 L 240.152344 123.578125 C 240.152344 134.164062 231.570312 142.746094 220.988281 142.746094 C 210.402344 142.746094 201.820312 134.164062 201.820312 123.578125 C 201.820312 112.992188 210.402344 104.410156 220.988281 104.410156 C 231.570312 104.410156 240.152344 112.992188 240.152344 123.578125 Z M 172.039062 105.78125 "/>
</clipPath>
<clipPath id="clip82">
  <path d="M 176.167969 140.660156 L 295.050781 140.660156 L 295.050781 246.972656 L 176.167969 246.972656 Z M 176.167969 140.660156 "/>
</clipPath>
<clipPath id="clip83">
  <path d="M 176.167969 140.660156 L 295.050781 140.660156 L 295.050781 246.972656 L 176.167969 246.972656 Z M 176.167969 140.660156 L 269.722656 219.109375 C 269.722656 229.691406 261.140625 238.273438 250.554688 238.273438 C 239.96875 238.273438 231.386719 229.691406 231.386719 219.109375 C 231.386719 208.523438 239.96875 199.941406 250.554688 199.941406 C 261.140625 199.941406 269.722656 208.523438 269.722656 219.109375 Z M 176.167969 140.660156 "/>
</clipPath>
<clipPath id="clip84">
  <path d="M 176.167969 140.660156 L 295.050781 140.660156 L 295.050781 246.972656 L 176.167969 246.972656 Z M 176.167969 140.660156 L 239.828125 168.519531 C 239.828125 179.105469 231.246094 187.6875 220.660156 187.6875 C 210.078125 187.6875 201.496094 179.105469 201.496094 168.519531 C 201.496094 157.933594 210.078125 149.355469 220.660156 149.355469 C 231.246094 149.355469 239.828125 157.933594 239.828125 168.519531 Z M 176.167969 140.660156 "/>
</clipPath>
<clipPath id="clip85">
  <path d="M 264.671875 127.953125 L 375.445312 127.953125 L 375.445312 221.808594 L 264.671875 221.808594 Z M 264.671875 127.953125 "/>
</clipPath>
<clipPath id="clip86">
  <path d="M 264.671875 127.953125 L 375.445312 127.953125 L 375.445312 221.808594 L 264.671875 221.808594 Z M 264.671875 127.953125 L 343.917969 137.707031 C 343.917969 148.292969 335.335938 156.875 324.753906 156.875 C 314.167969 156.875 305.585938 148.292969 305.585938 137.707031 C 305.585938 127.121094 314.167969 118.542969 324.753906 118.542969 C 335.335938 118.542969 343.917969 127.121094 343.917969 137.707031 Z M 264.671875 127.953125 "/>
</clipPath>
<clipPath id="clip87">
  <path d="M 264.671875 127.953125 L 375.445312 127.953125 L 375.445312 221.808594 L 264.671875 221.808594 Z M 264.671875 127.953125 L 334.527344 212.050781 C 334.527344 222.636719 325.945312 231.214844 315.359375 231.214844 C 304.777344 231.214844 296.195312 222.636719 296.195312 212.050781 C 296.195312 201.464844 304.777344 192.882812 315.359375 192.882812 C 325.945312 192.882812 334.527344 201.464844 334.527344 212.050781 Z M 264.671875 127.953125 "/>
</clipPath>
<clipPath id="clip88">
  <path d="M 258.65625 86.949219 L 333.925781 86.949219 L 333.925781 194.941406 L 258.65625 194.941406 Z M 258.65625 86.949219 "/>
</clipPath>
<clipPath id="clip89">
  <path d="M 258.65625 86.949219 L 333.925781 86.949219 L 333.925781 194.941406 L 258.65625 194.941406 Z M 258.65625 86.949219 L 343.917969 137.707031 C 343.917969 148.292969 335.335938 156.875 324.753906 156.875 C 314.167969 156.875 305.585938 148.292969 305.585938 137.707031 C 305.585938 127.121094 314.167969 118.542969 324.753906 118.542969 C 335.335938 118.542969 343.917969 127.121094 343.917969 137.707031 Z M 258.65625 86.949219 "/>
</clipPath>
<clipPath id="clip90">
  <path d="M 258.65625 86.949219 L 333.925781 86.949219 L 333.925781 194.941406 L 258.65625 194.941406 Z M 258.65625 86.949219 L 286.988281 144.179688 C 286.988281 154.765625 278.410156 163.347656 267.824219 163.347656 C 257.238281 163.347656 248.65625 154.765625 248.65625 144.179688 C 248.65625 133.597656 257.238281 125.015625 267.824219 125.015625 C 278.410156 125.015625 286.988281 133.597656 286.988281 144.179688 Z M 258.65625 86.949219 "/>
</clipPath>
<clipPath id="clip91">
  <path d="M 210.785156 72.949219 L 334.960938 72.949219 L 334.960938 188.339844 L 210.785156 188.339844 Z M 210.785156 72.949219 "/>
</clipPath>
<clipPath id="clip92">
  <path d="M 210.785156 72.949219 L 334.960938 72.949219 L 334.960938 188.339844 L 210.785156 188.339844 Z M 210.785156 72.949219 L 343.917969 137.707031 C 343.917969 148.292969 335.335938 156.875 324.753906 156.875 C 314.167969 156.875 305.585938 148.292969 305.585938 137.707031 C 305.585938 127.121094 314.167969 118.542969 324.753906 118.542969 C 335.335938 118.542969 343.917969 127.121094 343.917969 137.707031 Z M 210.785156 72.949219 "/>
</clipPath>
<clipPath id="clip93">
  <path d="M 210.785156 72.949219 L 334.960938 72.949219 L 334.960938 188.339844 L 210.785156 188.339844 Z M 210.785156 72.949219 L 240.152344 123.578125 C 240.152344 134.164062 231.570312 142.746094 220.988281 142.746094 C 210.402344 142.746094 201.820312 134.164062 201.820312 123.578125 C 201.820312 112.992188 210.402344 104.410156 220.988281 104.410156 C 231.570312 104.410156 240.152344 112.992188 240.152344 123.578125 Z M 210.785156 72.949219 "/>
</clipPath>
<clipPath id="clip94">
  <path d="M 203.421875 88.589844 L 341.996094 88.589844 L 341.996094 217.640625 L 203.421875 217.640625 Z M 203.421875 88.589844 "/>
</clipPath>
<clipPath id="clip95">
  <path d="M 203.421875 88.589844 L 341.996094 88.589844 L 341.996094 217.640625 L 203.421875 217.640625 Z M 203.421875 88.589844 L 343.917969 137.707031 C 343.917969 148.292969 335.335938 156.875 324.753906 156.875 C 314.167969 156.875 305.585938 148.292969 305.585938 137.707031 C 305.585938 127.121094 314.167969 118.542969 324.753906 118.542969 C 335.335938 118.542969 343.917969 127.121094 343.917969 137.707031 Z M 203.421875 88.589844 "/>
</clipPath>
<clipPath id="clip96">
  <path d="M 203.421875 88.589844 L 341.996094 88.589844 L 341.996094 217.640625 L 203.421875 217.640625 Z M 203.421875 88.589844 L 239.828125 168.519531 C 239.828125 179.105469 231.246094 187.6875 220.660156 187.6875 C 210.078125 187.6875 201.496094 179.105469 201.496094 168.519531 C 201.496094 157.933594 210.078125 149.355469 220.660156 149.355469 C 231.246094 149.355469 239.828125 157.933594 239.828125 168.519531 Z M 203.421875 88.589844 "/>
</clipPath>
<clipPath id="clip97">
  <path d="M 194.355469 161.363281 L 325.121094 161.363281 L 325.121094 276.8125 L 194.355469 276.8125 Z M 194.355469 161.363281 "/>
</clipPath>
<clipPath id="clip98">
  <path d="M 194.355469 161.363281 L 325.121094 161.363281 L 325.121094 276.8125 L 194.355469 276.8125 Z M 194.355469 161.363281 L 223.28125 226.121094 C 223.28125 236.707031 214.699219 245.289062 204.113281 245.289062 C 193.527344 245.289062 184.945312 236.707031 184.945312 226.121094 C 184.945312 215.535156 193.527344 206.953125 204.113281 206.953125 C 214.699219 206.953125 223.28125 215.535156 223.28125 226.121094 Z M 194.355469 161.363281 "/>
</clipPath>
<clipPath id="clip99">
  <path d="M 194.355469 161.363281 L 325.121094 161.363281 L 325.121094 276.8125 L 194.355469 276.8125 Z M 194.355469 161.363281 L 334.527344 212.050781 C 334.527344 222.636719 325.945312 231.214844 315.359375 231.214844 C 304.777344 231.214844 296.195312 222.636719 296.195312 212.050781 C 296.195312 201.464844 304.777344 192.882812 315.359375 192.882812 C 325.945312 192.882812 334.527344 201.464844 334.527344 212.050781 Z M 194.355469 161.363281 "/>
</clipPath>
<clipPath id="clip100">
  <path d="M 153.679688 112.078125 L 271.425781 112.078125 L 271.425781 237.625 L 153.679688 237.625 Z M 153.679688 112.078125 "/>
</clipPath>
<clipPath id="clip101">
  <path d="M 153.679688 112.078125 L 271.425781 112.078125 L 271.425781 237.625 L 153.679688 237.625 Z M 153.679688 112.078125 L 223.28125 226.121094 C 223.28125 236.707031 214.699219 245.289062 204.113281 245.289062 C 193.527344 245.289062 184.945312 236.707031 184.945312 226.121094 C 184.945312 215.535156 193.527344 206.953125 204.113281 206.953125 C 214.699219 206.953125 223.28125 215.535156 223.28125 226.121094 Z M 153.679688 112.078125 "/>
</clipPath>
<clipPath id="clip102">
  <path d="M 153.679688 112.078125 L 271.425781 112.078125 L 271.425781 237.625 L 153.679688 237.625 Z M 153.679688 112.078125 L 240.152344 123.578125 C 240.152344 134.164062 231.570312 142.746094 220.988281 142.746094 C 210.402344 142.746094 201.820312 134.164062 201.820312 123.578125 C 201.820312 112.992188 210.402344 104.410156 220.988281 104.410156 C 231.570312 104.410156 240.152344 112.992188 240.152344 123.578125 Z M 153.679688 112.078125 "/>
</clipPath>
<clipPath id="clip103">
  <path d="M 154.886719 151.648438 L 269.890625 151.648438 L 269.890625 242.996094 L 154.886719 242.996094 Z M 154.886719 151.648438 "/>
</clipPath>
<clipPath id="clip104">
  <path d="M 154.886719 151.648438 L 269.890625 151.648438 L 269.890625 242.996094 L 154.886719 242.996094 Z M 154.886719 151.648438 L 223.28125 226.121094 C 223.28125 236.707031 214.699219 245.289062 204.113281 245.289062 C 193.527344 245.289062 184.945312 236.707031 184.945312 226.121094 C 184.945312 215.535156 193.527344 206.953125 204.113281 206.953125 C 214.699219 206.953125 223.28125 215.535156 223.28125 226.121094 Z M 154.886719 151.648438 "/>
</clipPath>
<clipPath id="clip105">
  <path d="M 154.886719 151.648438 L 269.890625 151.648438 L 269.890625 242.996094 L 154.886719 242.996094 Z M 154.886719 151.648438 L 239.828125 168.519531 C 239.828125 179.105469 231.246094 187.6875 220.660156 187.6875 C 210.078125 187.6875 201.496094 179.105469 201.496094 168.519531 C 201.496094 157.933594 210.078125 149.355469 220.660156 149.355469 C 231.246094 149.355469 239.828125 157.933594 239.828125 168.519531 Z M 154.886719 151.648438 "/>
</clipPath>
<clipPath id="clip106">
  <path d="M 138.757812 55.820312 L 288.03125 55.820312 L 288.03125 192.316406 L 138.757812 192.316406 Z M 138.757812 55.820312 "/>
</clipPath>
<clipPath id="clip107">
  <path d="M 138.757812 55.820312 L 288.03125 55.820312 L 288.03125 192.316406 L 138.757812 192.316406 Z M 138.757812 55.820312 L 178.128906 103.953125 C 178.128906 114.539062 169.546875 123.117188 158.960938 123.117188 C 148.375 123.117188 139.796875 114.539062 139.796875 103.953125 C 139.796875 93.367188 148.375 84.785156 158.960938 84.785156 C 169.546875 84.785156 178.128906 93.367188 178.128906 103.953125 Z M 138.757812 55.820312 "/>
</clipPath>
<clipPath id="clip108">
  <path d="M 138.757812 55.820312 L 288.03125 55.820312 L 288.03125 192.316406 L 138.757812 192.316406 Z M 138.757812 55.820312 L 286.988281 144.179688 C 286.988281 154.765625 278.410156 163.347656 267.824219 163.347656 C 257.238281 163.347656 248.65625 154.765625 248.65625 144.179688 C 248.65625 133.597656 257.238281 125.015625 267.824219 125.015625 C 278.410156 125.015625 286.988281 133.597656 286.988281 144.179688 Z M 138.757812 55.820312 "/>
</clipPath>
<clipPath id="clip109">
  <path d="M 140.882812 55.09375 L 239.070312 55.09375 L 239.070312 172.441406 L 140.882812 172.441406 Z M 140.882812 55.09375 "/>
</clipPath>
<clipPath id="clip110">
  <path d="M 140.882812 55.09375 L 239.070312 55.09375 L 239.070312 172.441406 L 140.882812 172.441406 Z M 140.882812 55.09375 L 178.128906 103.953125 C 178.128906 114.539062 169.546875 123.117188 158.960938 123.117188 C 148.375 123.117188 139.796875 114.539062 139.796875 103.953125 C 139.796875 93.367188 148.375 84.785156 158.960938 84.785156 C 169.546875 84.785156 178.128906 93.367188 178.128906 103.953125 Z M 140.882812 55.09375 "/>
</clipPath>
<clipPath id="clip111">
  <path d="M 140.882812 55.09375 L 239.070312 55.09375 L 239.070312 172.441406 L 140.882812 172.441406 Z M 140.882812 55.09375 L 240.152344 123.578125 C 240.152344 134.164062 231.570312 142.746094 220.988281 142.746094 C 210.402344 142.746094 201.820312 134.164062 201.820312 123.578125 C 201.820312 112.992188 210.402344 104.410156 220.988281 104.410156 C 231.570312 104.410156 240.152344 112.992188 240.152344 123.578125 Z M 140.882812 55.09375 "/>
</clipPath>
<clipPath id="clip112">
  <path d="M 120.984375 67.492188 L 258.640625 67.492188 L 258.640625 204.984375 L 120.984375 204.984375 Z M 120.984375 67.492188 "/>
</clipPath>
<clipPath id="clip113">
  <path d="M 120.984375 67.492188 L 258.640625 67.492188 L 258.640625 204.984375 L 120.984375 204.984375 Z M 120.984375 67.492188 L 178.128906 103.953125 C 178.128906 114.539062 169.546875 123.117188 158.960938 123.117188 C 148.375 123.117188 139.796875 114.539062 139.796875 103.953125 C 139.796875 93.367188 148.375 84.785156 158.960938 84.785156 C 169.546875 84.785156 178.128906 93.367188 178.128906 103.953125 Z M 120.984375 67.492188 "/>
</clipPath>
<clipPath id="clip114">
  <path d="M 120.984375 67.492188 L 258.640625 67.492188 L 258.640625 204.984375 L 120.984375 204.984375 Z M 120.984375 67.492188 L 239.828125 168.519531 C 239.828125 179.105469 231.246094 187.6875 220.660156 187.6875 C 210.078125 187.6875 201.496094 179.105469 201.496094 168.519531 C 201.496094 157.933594 210.078125 149.355469 220.660156 149.355469 C 231.246094 149.355469 239.828125 157.933594 239.828125 168.519531 Z M 120.984375 67.492188 "/>
</clipPath>
<clipPath id="clip115">
  <path d="M 225.308594 113.253906 L 357.878906 113.253906 L 357.878906 242.980469 L 225.308594 242.980469 Z M 225.308594 113.253906 "/>
</clipPath>
<clipPath id="clip116">
  <path d="M 225.308594 113.253906 L 357.878906 113.253906 L 357.878906 242.980469 L 225.308594 242.980469 Z M 225.308594 113.253906 L 334.527344 212.050781 C 334.527344 222.636719 325.945312 231.214844 315.359375 231.214844 C 304.777344 231.214844 296.195312 222.636719 296.195312 212.050781 C 296.195312 201.464844 304.777344 192.882812 315.359375 192.882812 C 325.945312 192.882812 334.527344 201.464844 334.527344 212.050781 Z M 225.308594 113.253906 "/>
</clipPath>
<clipPath id="clip117">
  <path d="M 225.308594 113.253906 L 357.878906 113.253906 L 357.878906 242.980469 L 225.308594 242.980469 Z M 225.308594 113.253906 L 286.988281 144.179688 C 286.988281 154.765625 278.410156 163.347656 267.824219 163.347656 C 257.238281 163.347656 248.65625 154.765625 248.65625 144.179688 C 248.65625 133.597656 257.238281 125.015625 267.824219 125.015625 C 278.410156 125.015625 286.988281 133.597656 286.988281 144.179688 Z M 225.308594 113.253906 "/>
</clipPath>
<clipPath id="clip118">
  <path d="M 60.34375 219.527344 L 196.558594 219.527344 L 196.558594 356.554688 L 60.34375 356.554688 Z M 60.34375 219.527344 "/>
</clipPath>
<clipPath id="clip119">
  <path d="M 60.34375 219.527344 L 196.558594 219.527344 L 196.558594 356.554688 L 60.34375 356.554688 Z M 60.34375 219.527344 L 182.164062 316.019531 C 182.164062 326.605469 173.582031 335.1875 162.996094 335.1875 C 152.410156 335.1875 143.828125 326.605469 143.828125 316.019531 C 143.828125 305.433594 152.410156 296.855469 162.996094 296.855469 C 173.582031 296.855469 182.164062 305.433594 182.164062 316.019531 Z M 60.34375 219.527344 "/>
</clipPath>
<clipPath id="clip120">
  <path d="M 60.34375 219.527344 L 196.558594 219.527344 L 196.558594 356.554688 L 60.34375 356.554688 Z M 60.34375 219.527344 L 113.070312 260.058594 C 113.070312 270.644531 104.488281 279.226562 93.902344 279.226562 C 83.316406 279.226562 74.738281 270.644531 74.738281 260.058594 C 74.738281 249.472656 83.316406 240.894531 93.902344 240.894531 C 104.488281 240.894531 113.070312 249.472656 113.070312 260.058594 Z M 60.34375 219.527344 "/>
</clipPath>
<clipPath id="clip121">
  <path d="M 0 229.617188 L 136.757812 229.617188 L 136.757812 368.816406 L 0 368.816406 Z M 0 229.617188 "/>
</clipPath>
<clipPath id="clip122">
  <path d="M -2.359375 229.617188 L 136.757812 229.617188 L 136.757812 368.816406 L -2.359375 368.816406 Z M -2.359375 229.617188 L 113.070312 260.058594 C 113.070312 270.644531 104.488281 279.226562 93.902344 279.226562 C 83.316406 279.226562 74.738281 270.644531 74.738281 260.058594 C 74.738281 249.472656 83.316406 240.894531 93.902344 240.894531 C 104.488281 240.894531 113.070312 249.472656 113.070312 260.058594 Z M -2.359375 229.617188 "/>
</clipPath>
<clipPath id="clip123">
  <path d="M -2.359375 229.617188 L 136.757812 229.617188 L 136.757812 368.816406 L -2.359375 368.816406 Z M -2.359375 229.617188 L 59.65625 338.371094 C 59.65625 348.953125 51.078125 357.535156 40.492188 357.535156 C 29.90625 357.535156 21.324219 348.953125 21.324219 338.371094 C 21.324219 327.785156 29.90625 319.203125 40.492188 319.203125 C 51.078125 319.203125 59.65625 327.785156 59.65625 338.371094 Z M -2.359375 229.617188 "/>
</clipPath>
</defs>
<g id="surface496">
<g clip-path="url(#clip1)" clip-rule="nonzero">
<g clip-path="url(#clip2)" clip-rule="evenodd">
<g clip-path="url(#clip3)" clip-rule="evenodd">
<path style="fill:none;stroke-width:0.0811636;stroke-linecap:butt;stroke-linejoin:miter;stroke:rgb(55.294118%,82.745098%,78.039216%);stroke-opacity:0.8;stroke-miterlimit:10;" d="M -0.255291 2.536203 L 1.682912 0.897324 " transform="matrix(47.228825,0,0,47.228825,183.131334,43.968102)"/>
</g>
</g>
</g>
<g clip-path="url(#clip4)" clip-rule="nonzero">
<g clip-path="url(#clip5)" clip-rule="evenodd">
<g clip-path="url(#clip6)" clip-rule="evenodd">
<path style="fill:none;stroke-width:0.0811636;stroke-linecap:butt;stroke-linejoin:miter;stroke:rgb(55.294118%,82.745098%,78.039216%);stroke-opacity:0.8;stroke-miterlimit:10;" d="M -0.255291 2.536203 L 0.450878 0.564834 " transform="matrix(47.228825,0,0,47.228825,183.131334,43.968102)"/>
</g>
</g>
</g>
<g clip-path="url(#clip7)" clip-rule="nonzero">
<g clip-path="url(#clip8)" clip-rule="evenodd">
<g clip-path="url(#clip9)" clip-rule="evenodd">
<path style="fill:none;stroke-width:0.0811636;stroke-linecap:butt;stroke-linejoin:miter;stroke:rgb(55.294118%,82.745098%,78.039216%);stroke-opacity:0.8;stroke-miterlimit:10;" d="M -0.255291 2.536203 L 1.427589 3.708355 " transform="matrix(47.228825,0,0,47.228825,183.131334,43.968102)"/>
</g>
</g>
</g>
<g clip-path="url(#clip10)" clip-rule="nonzero">
<g clip-path="url(#clip11)" clip-rule="evenodd">
<g clip-path="url(#clip12)" clip-rule="evenodd">
<path style="fill:none;stroke-width:0.0811636;stroke-linecap:butt;stroke-linejoin:miter;stroke:rgb(55.294118%,82.745098%,78.039216%);stroke-opacity:0.8;stroke-miterlimit:10;" d="M -0.255291 2.536203 L 0.444261 3.856818 " transform="matrix(47.228825,0,0,47.228825,183.131334,43.968102)"/>
</g>
</g>
</g>
<g clip-path="url(#clip13)" clip-rule="nonzero">
<g clip-path="url(#clip14)" clip-rule="evenodd">
<g clip-path="url(#clip15)" clip-rule="evenodd">
<path style="fill:none;stroke-width:0.0811636;stroke-linecap:butt;stroke-linejoin:miter;stroke:rgb(55.294118%,82.745098%,78.039216%);stroke-opacity:0.8;stroke-miterlimit:10;" d="M -0.255291 2.536203 L -0.511772 1.270093 " transform="matrix(47.228825,0,0,47.228825,183.131334,43.968102)"/>
</g>
</g>
</g>
<g clip-path="url(#clip16)" clip-rule="nonzero">
<g clip-path="url(#clip17)" clip-rule="evenodd">
<g clip-path="url(#clip18)" clip-rule="evenodd">
<path style="fill:none;stroke-width:0.0811636;stroke-linecap:butt;stroke-linejoin:miter;stroke:rgb(55.294118%,82.745098%,78.039216%);stroke-opacity:0.8;stroke-miterlimit:10;" d="M -0.255291 2.536203 L 1.793246 2.121831 " transform="matrix(47.228825,0,0,47.228825,183.131334,43.968102)"/>
</g>
</g>
</g>
<g clip-path="url(#clip19)" clip-rule="nonzero">
<g clip-path="url(#clip20)" clip-rule="evenodd">
<g clip-path="url(#clip21)" clip-rule="evenodd">
<path style="fill:none;stroke-width:0.0811636;stroke-linecap:butt;stroke-linejoin:miter;stroke:url(#linear0);stroke-miterlimit:10;" d="M -0.255291 2.536203 L -1.889291 4.575394 " transform="matrix(47.228825,0,0,47.228825,183.131334,43.968102)"/>
</g>
</g>
</g>
<g clip-path="url(#clip22)" clip-rule="nonzero">
<g clip-path="url(#clip23)" clip-rule="evenodd">
<g clip-path="url(#clip24)" clip-rule="evenodd">
<path style="fill:none;stroke-width:0.0811636;stroke-linecap:butt;stroke-linejoin:miter;stroke:rgb(55.294118%,82.745098%,78.039216%);stroke-opacity:0.8;stroke-miterlimit:10;" d="M -0.255291 2.536203 L 0.801564 1.685624 " transform="matrix(47.228825,0,0,47.228825,183.131334,43.968102)"/>
</g>
</g>
</g>
<g clip-path="url(#clip25)" clip-rule="nonzero">
<g clip-path="url(#clip26)" clip-rule="evenodd">
<g clip-path="url(#clip27)" clip-rule="evenodd">
<path style="fill:none;stroke-width:0.0811636;stroke-linecap:butt;stroke-linejoin:miter;stroke:rgb(55.294118%,82.745098%,78.039216%);stroke-opacity:0.8;stroke-miterlimit:10;" d="M -0.255291 2.536203 L 0.794617 2.637191 " transform="matrix(47.228825,0,0,47.228825,183.131334,43.968102)"/>
</g>
</g>
</g>
<g clip-path="url(#clip28)" clip-rule="nonzero">
<g clip-path="url(#clip29)" clip-rule="evenodd">
<g clip-path="url(#clip30)" clip-rule="evenodd">
<path style="fill:none;stroke-width:0.0811636;stroke-linecap:butt;stroke-linejoin:miter;stroke:rgb(55.294118%,82.745098%,78.039216%);stroke-opacity:0.8;stroke-miterlimit:10;" d="M 1.682912 0.897324 L 0.450878 0.564834 " transform="matrix(47.228825,0,0,47.228825,183.131334,43.968102)"/>
</g>
</g>
</g>
<g clip-path="url(#clip31)" clip-rule="nonzero">
<g clip-path="url(#clip32)" clip-rule="evenodd">
<g clip-path="url(#clip33)" clip-rule="evenodd">
<path style="fill:none;stroke-width:0.0811636;stroke-linecap:butt;stroke-linejoin:miter;stroke:rgb(55.294118%,82.745098%,78.039216%);stroke-opacity:0.8;stroke-miterlimit:10;" d="M 1.682912 0.897324 L 1.427589 3.708355 " transform="matrix(47.228825,0,0,47.228825,183.131334,43.968102)"/>
</g>
</g>
</g>
<g clip-path="url(#clip34)" clip-rule="nonzero">
<g clip-path="url(#clip35)" clip-rule="evenodd">
<g clip-path="url(#clip36)" clip-rule="evenodd">
<path style="fill:none;stroke-width:0.0811636;stroke-linecap:butt;stroke-linejoin:miter;stroke:rgb(55.294118%,82.745098%,78.039216%);stroke-opacity:0.8;stroke-miterlimit:10;" d="M 1.682912 0.897324 L 0.801564 1.685624 " transform="matrix(47.228825,0,0,47.228825,183.131334,43.968102)"/>
</g>
</g>
</g>
<g clip-path="url(#clip37)" clip-rule="nonzero">
<g clip-path="url(#clip38)" clip-rule="evenodd">
<g clip-path="url(#clip39)" clip-rule="evenodd">
<path style="fill:none;stroke-width:0.0811636;stroke-linecap:butt;stroke-linejoin:miter;stroke:rgb(100%,92.941176%,43.529412%);stroke-opacity:0.8;stroke-miterlimit:10;" d="M -1.707166 7.342507 L -0.426334 5.760284 " transform="matrix(47.228825,0,0,47.228825,183.131334,43.968102)"/>
</g>
</g>
</g>
<g clip-path="url(#clip40)" clip-rule="nonzero">
<g clip-path="url(#clip41)" clip-rule="evenodd">
<g clip-path="url(#clip42)" clip-rule="evenodd">
<path style="fill:none;stroke-width:0.0811636;stroke-linecap:butt;stroke-linejoin:miter;stroke:rgb(100%,92.941176%,43.529412%);stroke-opacity:0.8;stroke-miterlimit:10;" d="M -1.707166 7.342507 L -3.020171 6.233545 " transform="matrix(47.228825,0,0,47.228825,183.131334,43.968102)"/>
</g>
</g>
</g>
<g clip-path="url(#clip43)" clip-rule="nonzero">
<g clip-path="url(#clip44)" clip-rule="evenodd">
<g clip-path="url(#clip45)" clip-rule="evenodd">
<path style="fill:none;stroke-width:0.0811636;stroke-linecap:butt;stroke-linejoin:miter;stroke:rgb(55.294118%,82.745098%,78.039216%);stroke-opacity:0.8;stroke-miterlimit:10;" d="M 2.538206 5.775916 L 1.427589 3.708355 " transform="matrix(47.228825,0,0,47.228825,183.131334,43.968102)"/>
</g>
</g>
</g>
<g clip-path="url(#clip46)" clip-rule="nonzero">
<g clip-path="url(#clip47)" clip-rule="evenodd">
<g clip-path="url(#clip48)" clip-rule="evenodd">
<path style="fill:none;stroke-width:0.0811636;stroke-linecap:butt;stroke-linejoin:miter;stroke:rgb(100%,92.941176%,43.529412%);stroke-opacity:0.8;stroke-miterlimit:10;" d="M 7.969211 6.072345 L 7.097127 4.861071 " transform="matrix(47.228825,0,0,47.228825,183.131334,43.968102)"/>
</g>
</g>
</g>
<g clip-path="url(#clip49)" clip-rule="nonzero">
<g clip-path="url(#clip50)" clip-rule="evenodd">
<g clip-path="url(#clip51)" clip-rule="evenodd">
<path style="fill:none;stroke-width:0.0811636;stroke-linecap:butt;stroke-linejoin:miter;stroke:rgb(100%,92.941176%,43.529412%);stroke-opacity:0.8;stroke-miterlimit:10;" d="M 7.969211 6.072345 L 6.534954 6.386474 " transform="matrix(47.228825,0,0,47.228825,183.131334,43.968102)"/>
</g>
</g>
</g>
<g clip-path="url(#clip52)" clip-rule="nonzero">
<g clip-path="url(#clip53)" clip-rule="evenodd">
<g clip-path="url(#clip54)" clip-rule="evenodd">
<path style="fill:none;stroke-width:0.0811636;stroke-linecap:butt;stroke-linejoin:miter;stroke:rgb(100%,92.941176%,43.529412%);stroke-opacity:0.8;stroke-miterlimit:10;" d="M 7.097127 4.861071 L 6.534954 6.386474 " transform="matrix(47.228825,0,0,47.228825,183.131334,43.968102)"/>
</g>
</g>
</g>
<g clip-path="url(#clip55)" clip-rule="nonzero">
<g clip-path="url(#clip56)" clip-rule="evenodd">
<g clip-path="url(#clip57)" clip-rule="evenodd">
<path style="fill:none;stroke-width:0.0811636;stroke-linecap:butt;stroke-linejoin:miter;stroke:rgb(55.294118%,82.745098%,78.039216%);stroke-opacity:0.8;stroke-miterlimit:10;" d="M 0.450878 0.564834 L -0.511772 1.270093 " transform="matrix(47.228825,0,0,47.228825,183.131334,43.968102)"/>
</g>
</g>
</g>
<g clip-path="url(#clip58)" clip-rule="nonzero">
<g clip-path="url(#clip59)" clip-rule="evenodd">
<g clip-path="url(#clip60)" clip-rule="evenodd">
<path style="fill:none;stroke-width:0.0811636;stroke-linecap:butt;stroke-linejoin:miter;stroke:rgb(55.294118%,82.745098%,78.039216%);stroke-opacity:0.8;stroke-miterlimit:10;" d="M 0.450878 0.564834 L 1.793246 2.121831 " transform="matrix(47.228825,0,0,47.228825,183.131334,43.968102)"/>
</g>
</g>
</g>
<g clip-path="url(#clip61)" clip-rule="nonzero">
<g clip-path="url(#clip62)" clip-rule="evenodd">
<g clip-path="url(#clip63)" clip-rule="evenodd">
<path style="fill:none;stroke-width:0.0811636;stroke-linecap:butt;stroke-linejoin:miter;stroke:rgb(55.294118%,82.745098%,78.039216%);stroke-opacity:0.8;stroke-miterlimit:10;" d="M 0.450878 0.564834 L 0.801564 1.685624 " transform="matrix(47.228825,0,0,47.228825,183.131334,43.968102)"/>
</g>
</g>
</g>
<g clip-path="url(#clip64)" clip-rule="nonzero">
<g clip-path="url(#clip65)" clip-rule="evenodd">
<g clip-path="url(#clip66)" clip-rule="evenodd">
<path style="fill:none;stroke-width:0.0811636;stroke-linecap:butt;stroke-linejoin:miter;stroke:rgb(55.294118%,82.745098%,78.039216%);stroke-opacity:0.8;stroke-miterlimit:10;" d="M 0.450878 0.564834 L 0.794617 2.637191 " transform="matrix(47.228825,0,0,47.228825,183.131334,43.968102)"/>
</g>
</g>
</g>
<g clip-path="url(#clip67)" clip-rule="nonzero">
<g clip-path="url(#clip68)" clip-rule="evenodd">
<g clip-path="url(#clip69)" clip-rule="evenodd">
<path style="fill:none;stroke-width:0.0811636;stroke-linecap:butt;stroke-linejoin:miter;stroke:rgb(55.294118%,82.745098%,78.039216%);stroke-opacity:0.8;stroke-miterlimit:10;" d="M 1.427589 3.708355 L 0.444261 3.856818 " transform="matrix(47.228825,0,0,47.228825,183.131334,43.968102)"/>
</g>
</g>
</g>
<g clip-path="url(#clip70)" clip-rule="nonzero">
<g clip-path="url(#clip71)" clip-rule="evenodd">
<g clip-path="url(#clip72)" clip-rule="evenodd">
<path style="fill:none;stroke-width:0.0811636;stroke-linecap:butt;stroke-linejoin:miter;stroke:rgb(55.294118%,82.745098%,78.039216%);stroke-opacity:0.8;stroke-miterlimit:10;" d="M 1.427589 3.708355 L 2.799732 3.5589 " transform="matrix(47.228825,0,0,47.228825,183.131334,43.968102)"/>
</g>
</g>
</g>
<g clip-path="url(#clip73)" clip-rule="nonzero">
<g clip-path="url(#clip74)" clip-rule="evenodd">
<g clip-path="url(#clip75)" clip-rule="evenodd">
<path style="fill:none;stroke-width:0.0811636;stroke-linecap:butt;stroke-linejoin:miter;stroke:rgb(55.294118%,82.745098%,78.039216%);stroke-opacity:0.8;stroke-miterlimit:10;" d="M 1.427589 3.708355 L 1.793246 2.121831 " transform="matrix(47.228825,0,0,47.228825,183.131334,43.968102)"/>
</g>
</g>
</g>
<g clip-path="url(#clip76)" clip-rule="nonzero">
<g clip-path="url(#clip77)" clip-rule="evenodd">
<g clip-path="url(#clip78)" clip-rule="evenodd">
<path style="fill:none;stroke-width:0.0811636;stroke-linecap:butt;stroke-linejoin:miter;stroke:url(#linear1);stroke-miterlimit:10;" d="M 1.427589 3.708355 L -0.426334 5.760284 " transform="matrix(47.228825,0,0,47.228825,183.131334,43.968102)"/>
</g>
</g>
</g>
<g clip-path="url(#clip79)" clip-rule="nonzero">
<g clip-path="url(#clip80)" clip-rule="evenodd">
<g clip-path="url(#clip81)" clip-rule="evenodd">
<path style="fill:none;stroke-width:0.0811636;stroke-linecap:butt;stroke-linejoin:miter;stroke:rgb(55.294118%,82.745098%,78.039216%);stroke-opacity:0.8;stroke-miterlimit:10;" d="M 1.427589 3.708355 L 0.801564 1.685624 " transform="matrix(47.228825,0,0,47.228825,183.131334,43.968102)"/>
</g>
</g>
</g>
<g clip-path="url(#clip82)" clip-rule="nonzero">
<g clip-path="url(#clip83)" clip-rule="evenodd">
<g clip-path="url(#clip84)" clip-rule="evenodd">
<path style="fill:none;stroke-width:0.0811636;stroke-linecap:butt;stroke-linejoin:miter;stroke:rgb(55.294118%,82.745098%,78.039216%);stroke-opacity:0.8;stroke-miterlimit:10;" d="M 1.427589 3.708355 L 0.794617 2.637191 " transform="matrix(47.228825,0,0,47.228825,183.131334,43.968102)"/>
</g>
</g>
</g>
<g clip-path="url(#clip85)" clip-rule="nonzero">
<g clip-path="url(#clip86)" clip-rule="evenodd">
<g clip-path="url(#clip87)" clip-rule="evenodd">
<path style="fill:none;stroke-width:0.0811636;stroke-linecap:butt;stroke-linejoin:miter;stroke:rgb(55.294118%,82.745098%,78.039216%);stroke-opacity:0.8;stroke-miterlimit:10;" d="M 2.998647 1.984782 L 2.799732 3.5589 " transform="matrix(47.228825,0,0,47.228825,183.131334,43.968102)"/>
</g>
</g>
</g>
<g clip-path="url(#clip88)" clip-rule="nonzero">
<g clip-path="url(#clip89)" clip-rule="evenodd">
<g clip-path="url(#clip90)" clip-rule="evenodd">
<path style="fill:none;stroke-width:0.0811636;stroke-linecap:butt;stroke-linejoin:miter;stroke:rgb(55.294118%,82.745098%,78.039216%);stroke-opacity:0.8;stroke-miterlimit:10;" d="M 2.998647 1.984782 L 1.793246 2.121831 " transform="matrix(47.228825,0,0,47.228825,183.131334,43.968102)"/>
</g>
</g>
</g>
<g clip-path="url(#clip91)" clip-rule="nonzero">
<g clip-path="url(#clip92)" clip-rule="evenodd">
<g clip-path="url(#clip93)" clip-rule="evenodd">
<path style="fill:none;stroke-width:0.0811636;stroke-linecap:butt;stroke-linejoin:miter;stroke:rgb(55.294118%,82.745098%,78.039216%);stroke-opacity:0.8;stroke-miterlimit:10;" d="M 2.998647 1.984782 L 0.801564 1.685624 " transform="matrix(47.228825,0,0,47.228825,183.131334,43.968102)"/>
</g>
</g>
</g>
<g clip-path="url(#clip94)" clip-rule="nonzero">
<g clip-path="url(#clip95)" clip-rule="evenodd">
<g clip-path="url(#clip96)" clip-rule="evenodd">
<path style="fill:none;stroke-width:0.0811636;stroke-linecap:butt;stroke-linejoin:miter;stroke:rgb(55.294118%,82.745098%,78.039216%);stroke-opacity:0.8;stroke-miterlimit:10;" d="M 2.998647 1.984782 L 0.794617 2.637191 " transform="matrix(47.228825,0,0,47.228825,183.131334,43.968102)"/>
</g>
</g>
</g>
<g clip-path="url(#clip97)" clip-rule="nonzero">
<g clip-path="url(#clip98)" clip-rule="evenodd">
<g clip-path="url(#clip99)" clip-rule="evenodd">
<path style="fill:none;stroke-width:0.0811636;stroke-linecap:butt;stroke-linejoin:miter;stroke:rgb(55.294118%,82.745098%,78.039216%);stroke-opacity:0.8;stroke-miterlimit:10;" d="M 0.444261 3.856818 L 2.799732 3.5589 " transform="matrix(47.228825,0,0,47.228825,183.131334,43.968102)"/>
</g>
</g>
</g>
<g clip-path="url(#clip100)" clip-rule="nonzero">
<g clip-path="url(#clip101)" clip-rule="evenodd">
<g clip-path="url(#clip102)" clip-rule="evenodd">
<path style="fill:none;stroke-width:0.0811636;stroke-linecap:butt;stroke-linejoin:miter;stroke:rgb(55.294118%,82.745098%,78.039216%);stroke-opacity:0.8;stroke-miterlimit:10;" d="M 0.444261 3.856818 L 0.801564 1.685624 " transform="matrix(47.228825,0,0,47.228825,183.131334,43.968102)"/>
</g>
</g>
</g>
<g clip-path="url(#clip103)" clip-rule="nonzero">
<g clip-path="url(#clip104)" clip-rule="evenodd">
<g clip-path="url(#clip105)" clip-rule="evenodd">
<path style="fill:none;stroke-width:0.0811636;stroke-linecap:butt;stroke-linejoin:miter;stroke:rgb(55.294118%,82.745098%,78.039216%);stroke-opacity:0.8;stroke-miterlimit:10;" d="M 0.444261 3.856818 L 0.794617 2.637191 " transform="matrix(47.228825,0,0,47.228825,183.131334,43.968102)"/>
</g>
</g>
</g>
<g clip-path="url(#clip106)" clip-rule="nonzero">
<g clip-path="url(#clip107)" clip-rule="evenodd">
<g clip-path="url(#clip108)" clip-rule="evenodd">
<path style="fill:none;stroke-width:0.0811636;stroke-linecap:butt;stroke-linejoin:miter;stroke:rgb(55.294118%,82.745098%,78.039216%);stroke-opacity:0.8;stroke-miterlimit:10;" d="M -0.511772 1.270093 L 1.793246 2.121831 " transform="matrix(47.228825,0,0,47.228825,183.131334,43.968102)"/>
</g>
</g>
</g>
<g clip-path="url(#clip109)" clip-rule="nonzero">
<g clip-path="url(#clip110)" clip-rule="evenodd">
<g clip-path="url(#clip111)" clip-rule="evenodd">
<path style="fill:none;stroke-width:0.0811636;stroke-linecap:butt;stroke-linejoin:miter;stroke:rgb(55.294118%,82.745098%,78.039216%);stroke-opacity:0.8;stroke-miterlimit:10;" d="M -0.511772 1.270093 L 0.801564 1.685624 " transform="matrix(47.228825,0,0,47.228825,183.131334,43.968102)"/>
</g>
</g>
</g>
<g clip-path="url(#clip112)" clip-rule="nonzero">
<g clip-path="url(#clip113)" clip-rule="evenodd">
<g clip-path="url(#clip114)" clip-rule="evenodd">
<path style="fill:none;stroke-width:0.0811636;stroke-linecap:butt;stroke-linejoin:miter;stroke:rgb(55.294118%,82.745098%,78.039216%);stroke-opacity:0.8;stroke-miterlimit:10;" d="M -0.511772 1.270093 L 0.794617 2.637191 " transform="matrix(47.228825,0,0,47.228825,183.131334,43.968102)"/>
</g>
</g>
</g>
<g clip-path="url(#clip115)" clip-rule="nonzero">
<g clip-path="url(#clip116)" clip-rule="evenodd">
<g clip-path="url(#clip117)" clip-rule="evenodd">
<path style="fill:none;stroke-width:0.0811636;stroke-linecap:butt;stroke-linejoin:miter;stroke:rgb(55.294118%,82.745098%,78.039216%);stroke-opacity:0.8;stroke-miterlimit:10;" d="M 2.799732 3.5589 L 1.793246 2.121831 " transform="matrix(47.228825,0,0,47.228825,183.131334,43.968102)"/>
</g>
</g>
</g>
<g clip-path="url(#clip118)" clip-rule="nonzero">
<g clip-path="url(#clip119)" clip-rule="evenodd">
<g clip-path="url(#clip120)" clip-rule="evenodd">
<path style="fill:none;stroke-width:0.0811636;stroke-linecap:butt;stroke-linejoin:miter;stroke:rgb(100%,92.941176%,43.529412%);stroke-opacity:0.8;stroke-miterlimit:10;" d="M -0.426334 5.760284 L -1.889291 4.575394 " transform="matrix(47.228825,0,0,47.228825,183.131334,43.968102)"/>
</g>
</g>
</g>
<g clip-path="url(#clip121)" clip-rule="nonzero">
<g clip-path="url(#clip122)" clip-rule="evenodd">
<g clip-path="url(#clip123)" clip-rule="evenodd">
<path style="fill:none;stroke-width:0.0811636;stroke-linecap:butt;stroke-linejoin:miter;stroke:rgb(100%,92.941176%,43.529412%);stroke-opacity:0.8;stroke-miterlimit:10;" d="M -1.889291 4.575394 L -3.020171 6.233545 " transform="matrix(47.228825,0,0,47.228825,183.131334,43.968102)"/>
</g>
</g>
</g>
<path style="fill-rule:nonzero;fill:rgb(55.294118%,82.745098%,78.039216%);fill-opacity:1;stroke-width:0.0811636;stroke-linecap:butt;stroke-linejoin:miter;stroke:rgb(55.294118%,82.745098%,78.039216%);stroke-opacity:1;stroke-miterlimit:10;" d="M 0.405829 -0.000031814 C 0.405829 0.22411 0.224118 0.405821 -0.0000238498 0.405821 C -0.224165 0.405821 -0.405794 0.22411 -0.405794 -0.000031814 C -0.405794 -0.224091 -0.224165 -0.405802 -0.0000238498 -0.405802 C 0.224118 -0.405802 0.405829 -0.224091 0.405829 -0.000031814 Z M 0.405829 -0.000031814 " transform="matrix(47.228825,0,0,47.228825,171.075345,163.751503)"/>
<path style="fill-rule:nonzero;fill:rgb(55.294118%,82.745098%,78.039216%);fill-opacity:1;stroke-width:0.0811636;stroke-linecap:butt;stroke-linejoin:miter;stroke:rgb(55.294118%,82.745098%,78.039216%);stroke-opacity:1;stroke-miterlimit:10;" d="M 0.405818 -0.0000124349 C 0.405818 0.224129 0.224107 0.405841 -0.0000347135 0.405841 C -0.224093 0.405841 -0.405805 0.224129 -0.405805 -0.0000124349 C -0.405805 -0.224154 -0.224093 -0.405783 -0.0000347135 -0.405783 C 0.224107 -0.405783 0.405818 -0.224154 0.405818 -0.0000124349 Z M 0.405818 -0.0000124349 " transform="matrix(47.228825,0,0,47.228825,262.614921,86.348244)"/>
<path style="fill-rule:nonzero;fill:rgb(100%,92.941176%,43.529412%);fill-opacity:1;stroke-width:0.0811636;stroke-linecap:butt;stroke-linejoin:miter;stroke:rgb(100%,92.941176%,43.529412%);stroke-opacity:1;stroke-miterlimit:10;" d="M 0.405837 -0.00000952469 C 0.405837 0.224132 0.224125 0.405844 -0.0000163448 0.405844 C -0.224158 0.405844 -0.405787 0.224132 -0.405787 -0.00000952469 C -0.405787 -0.224151 -0.224158 -0.40578 -0.0000163448 -0.40578 C 0.224125 -0.40578 0.405837 -0.224151 0.405837 -0.00000952469 Z M 0.405837 -0.00000952469 " transform="matrix(47.228825,0,0,47.228825,102.504678,390.746544)"/>
<path style="fill-rule:nonzero;fill:rgb(55.294118%,82.745098%,78.039216%);fill-opacity:1;stroke-width:0.0811636;stroke-linecap:butt;stroke-linejoin:miter;stroke:rgb(55.294118%,82.745098%,78.039216%);stroke-opacity:1;stroke-miterlimit:10;" d="M 0.405786 -0.00000230788 C 0.405786 0.224139 0.224157 0.405851 0.0000158831 0.405851 C -0.224126 0.405851 -0.405837 0.224139 -0.405837 -0.00000230788 C -0.405837 -0.224144 -0.224126 -0.405855 0.0000158831 -0.405855 C 0.224157 -0.405855 0.405786 -0.224144 0.405786 -0.00000230788 Z M 0.405786 -0.00000230788 " transform="matrix(47.228825,0,0,47.228825,303.007062,316.757921)"/>
<path style="fill-rule:nonzero;fill:rgb(100%,92.941176%,43.529412%);fill-opacity:1;stroke-width:0.0811636;stroke-linecap:butt;stroke-linejoin:miter;stroke:rgb(100%,92.941176%,43.529412%);stroke-opacity:1;stroke-miterlimit:10;" d="M 0.405832 0.0000060949 C 0.405832 0.224148 0.22412 0.405777 -0.0000214394 0.405777 C -0.224163 0.405777 -0.405792 0.224148 -0.405792 0.0000060949 C -0.405792 -0.224135 -0.224163 -0.405847 -0.0000214394 -0.405847 C 0.22412 -0.405847 0.405832 -0.224135 0.405832 0.0000060949 Z M 0.405832 0.0000060949 " transform="matrix(47.228825,0,0,47.228825,559.508825,330.757525)"/>
<path style="fill-rule:nonzero;fill:rgb(100%,92.941176%,43.529412%);fill-opacity:1;stroke-width:0.0811636;stroke-linecap:butt;stroke-linejoin:miter;stroke:rgb(100%,92.941176%,43.529412%);stroke-opacity:1;stroke-miterlimit:10;" d="M 0.405807 0.0000194906 C 0.405807 0.224161 0.224095 0.40579 0.0000367088 0.40579 C -0.224105 0.40579 -0.405816 0.224161 -0.405816 0.0000194906 C -0.405816 -0.224122 -0.224105 -0.405834 0.0000367088 -0.405834 C 0.224095 -0.405834 0.405807 -0.224122 0.405807 0.0000194906 Z M 0.405807 0.0000194906 " transform="matrix(47.228825,0,0,47.228825,518.318579,273.549861)"/>
<path style="fill-rule:nonzero;fill:rgb(55.294118%,82.745098%,78.039216%);fill-opacity:1;stroke-width:0.0811636;stroke-linecap:butt;stroke-linejoin:miter;stroke:rgb(55.294118%,82.745098%,78.039216%);stroke-opacity:1;stroke-miterlimit:10;" d="M 0.405847 0.0000216212 C 0.405847 0.224163 0.224135 0.405792 -0.00000659301 0.405792 C -0.224148 0.405792 -0.405777 0.224163 -0.405777 0.0000216212 C -0.405777 -0.22412 -0.224148 -0.405832 -0.00000659301 -0.405832 C 0.224135 -0.405832 0.405847 -0.22412 0.405847 0.0000216212 Z M 0.405847 0.0000216212 " transform="matrix(47.228825,0,0,47.228825,204.426093,70.64351)"/>
<path style="fill-rule:nonzero;fill:rgb(55.294118%,82.745098%,78.039216%);fill-opacity:1;stroke-width:0.0811636;stroke-linecap:butt;stroke-linejoin:miter;stroke:rgb(55.294118%,82.745098%,78.039216%);stroke-opacity:1;stroke-miterlimit:10;" d="M 0.405849 0.000036899 C 0.405849 0.224096 0.224137 0.405807 -0.0000042646 0.405807 C -0.224146 0.405807 -0.405857 0.224096 -0.405857 0.000036899 C -0.405857 -0.224105 -0.224146 -0.405816 -0.0000042646 -0.405816 C 0.224137 -0.405816 0.405849 -0.224105 0.405849 0.000036899 Z M 0.405849 0.000036899 " transform="matrix(47.228825,0,0,47.228825,250.554889,219.107632)"/>
<path style="fill-rule:nonzero;fill:rgb(55.294118%,82.745098%,78.039216%);fill-opacity:1;stroke-width:0.0811636;stroke-linecap:butt;stroke-linejoin:miter;stroke:rgb(55.294118%,82.745098%,78.039216%);stroke-opacity:1;stroke-miterlimit:10;" d="M 0.405804 -0.0000142627 C 0.405804 0.224127 0.224092 0.405839 0.0000336418 0.405839 C -0.224108 0.405839 -0.40582 0.224127 -0.40582 -0.0000142627 C -0.40582 -0.224156 -0.224108 -0.405785 0.0000336418 -0.405785 C 0.224092 -0.405785 0.405804 -0.224156 0.405804 -0.0000142627 Z M 0.405804 -0.0000142627 " transform="matrix(47.228825,0,0,47.228825,324.752317,137.707705)"/>
<path style="fill-rule:nonzero;fill:rgb(55.294118%,82.745098%,78.039216%);fill-opacity:1;stroke-width:0.0811636;stroke-linecap:butt;stroke-linejoin:miter;stroke:rgb(55.294118%,82.745098%,78.039216%);stroke-opacity:1;stroke-miterlimit:10;" d="M 0.405854 0.00000498283 C 0.405854 0.224146 0.224143 0.405858 0.00000117412 0.405858 C -0.22414 0.405858 -0.405852 0.224146 -0.405852 0.00000498283 C -0.405852 -0.224136 -0.22414 -0.405848 0.00000117412 -0.405848 C 0.224143 -0.405848 0.405854 -0.224136 0.405854 0.00000498283 Z M 0.405854 0.00000498283 " transform="matrix(47.228825,0,0,47.228825,204.113226,226.120858)"/>
<path style="fill-rule:nonzero;fill:rgb(55.294118%,82.745098%,78.039216%);fill-opacity:1;stroke-width:0.0811636;stroke-linecap:butt;stroke-linejoin:miter;stroke:rgb(55.294118%,82.745098%,78.039216%);stroke-opacity:1;stroke-miterlimit:10;" d="M 0.405835 0.000021787 C 0.405835 0.224163 0.224123 0.405792 -0.0000182568 0.405792 C -0.22416 0.405792 -0.405789 0.224163 -0.405789 0.000021787 C -0.405789 -0.22412 -0.22416 -0.405831 -0.0000182568 -0.405831 C 0.224123 -0.405831 0.405835 -0.22412 0.405835 0.000021787 Z M 0.405835 0.000021787 " transform="matrix(47.228825,0,0,47.228825,158.9618,103.952096)"/>
<path style="fill-rule:nonzero;fill:rgb(100%,92.941176%,43.529412%);fill-opacity:1;stroke-width:0.0811636;stroke-linecap:butt;stroke-linejoin:miter;stroke:rgb(100%,92.941176%,43.529412%);stroke-opacity:1;stroke-miterlimit:10;" d="M 0.405789 -0.00000165627 C 0.405789 0.22414 0.22416 0.405852 0.0000187497 0.405852 C -0.224123 0.405852 -0.405834 0.22414 -0.405834 -0.00000165627 C -0.405834 -0.224143 -0.224123 -0.405855 0.0000187497 -0.405855 C 0.22416 -0.405855 0.405789 -0.224143 0.405789 -0.00000165627 Z M 0.405789 -0.00000165627 " transform="matrix(47.228825,0,0,47.228825,491.768646,345.593828)"/>
<path style="fill-rule:nonzero;fill:rgb(55.294118%,82.745098%,78.039216%);fill-opacity:1;stroke-width:0.0811636;stroke-linecap:butt;stroke-linejoin:miter;stroke:rgb(55.294118%,82.745098%,78.039216%);stroke-opacity:1;stroke-miterlimit:10;" d="M 0.405826 0.0000206399 C 0.405826 0.224162 0.224114 0.405791 -0.0000272253 0.405791 C -0.224086 0.405791 -0.405798 0.224162 -0.405798 0.0000206399 C -0.405798 -0.224121 -0.224086 -0.405833 -0.0000272253 -0.405833 C 0.224114 -0.405833 0.405826 -0.224121 0.405826 0.0000206399 Z M 0.405826 0.0000206399 " transform="matrix(47.228825,0,0,47.228825,315.360661,212.049806)"/>
<path style="fill-rule:nonzero;fill:rgb(55.294118%,82.745098%,78.039216%);fill-opacity:1;stroke-width:0.0811636;stroke-linecap:butt;stroke-linejoin:miter;stroke:rgb(55.294118%,82.745098%,78.039216%);stroke-opacity:1;stroke-miterlimit:10;" d="M 0.405793 -0.0000394075 C 0.405793 0.224102 0.224164 0.405814 0.000022097 0.405814 C -0.224119 0.405814 -0.405831 0.224102 -0.405831 -0.0000394075 C -0.405831 -0.224098 -0.224119 -0.40581 0.000022097 -0.40581 C 0.224164 -0.40581 0.405793 -0.224098 0.405793 -0.0000394075 Z M 0.405793 -0.0000394075 " transform="matrix(47.228825,0,0,47.228825,267.823175,144.181549)"/>
<path style="fill-rule:nonzero;fill:rgb(100%,92.941176%,43.529412%);fill-opacity:1;stroke-width:0.0811636;stroke-linecap:butt;stroke-linejoin:miter;stroke:rgb(100%,92.941176%,43.529412%);stroke-opacity:1;stroke-miterlimit:10;" d="M 0.405856 -0.000015119 C 0.405856 0.224126 0.224145 0.405838 0.00000317252 0.405838 C -0.224138 0.405838 -0.40585 0.224126 -0.40585 -0.000015119 C -0.40585 -0.224157 -0.224138 -0.405786 0.00000317252 -0.405786 C 0.224145 -0.405786 0.405856 -0.224157 0.405856 -0.000015119 Z M 0.405856 -0.000015119 " transform="matrix(47.228825,0,0,47.228825,162.995944,316.020245)"/>
<path style="fill-rule:nonzero;fill:rgb(100%,92.941176%,43.529412%);fill-opacity:1;stroke-width:0.0811636;stroke-linecap:butt;stroke-linejoin:miter;stroke:rgb(100%,92.941176%,43.529412%);stroke-opacity:1;stroke-miterlimit:10;" d="M 0.405825 -0.0000216212 C 0.405825 0.22412 0.224113 0.405832 -0.0000283041 0.405832 C -0.224087 0.405832 -0.405799 0.22412 -0.405799 -0.0000216212 C -0.405799 -0.224163 -0.224087 -0.405792 -0.0000283041 -0.405792 C 0.224113 -0.405792 0.405825 -0.224163 0.405825 -0.0000216212 Z M 0.405825 -0.0000216212 " transform="matrix(47.228825,0,0,47.228825,299.427118,529.35649)"/>
<path style="fill-rule:nonzero;fill:rgb(100%,92.941176%,43.529412%);fill-opacity:1;stroke-width:0.0811636;stroke-linecap:butt;stroke-linejoin:miter;stroke:rgb(100%,92.941176%,43.529412%);stroke-opacity:1;stroke-miterlimit:10;" d="M 0.405839 -0.0000129656 C 0.405839 0.224128 0.224127 0.40584 -0.0000143991 0.40584 C -0.224156 0.40584 -0.405785 0.224128 -0.405785 -0.0000129656 C -0.405785 -0.224154 -0.224156 -0.405783 -0.0000143991 -0.405783 C 0.224127 -0.405783 0.405839 -0.224154 0.405839 -0.0000129656 Z M 0.405839 -0.0000129656 " transform="matrix(47.228825,0,0,47.228825,93.903024,260.059206)"/>
<path style="fill-rule:nonzero;fill:rgb(55.294118%,82.745098%,78.039216%);fill-opacity:1;stroke-width:0.0811636;stroke-linecap:butt;stroke-linejoin:miter;stroke:rgb(55.294118%,82.745098%,78.039216%);stroke-opacity:1;stroke-miterlimit:10;" d="M 0.405812 0.000000626252 C 0.405812 0.224142 0.2241 0.405854 0.0000413434 0.405854 C -0.2241 0.405854 -0.405812 0.224142 -0.405812 0.000000626252 C -0.405812 -0.224141 -0.2241 -0.405853 0.0000413434 -0.405853 C 0.2241 -0.405853 0.405812 -0.224141 0.405812 0.000000626252 Z M 0.405812 0.000000626252 " transform="matrix(47.228825,0,0,47.228825,220.986329,123.578095)"/>
<path style="fill-rule:nonzero;fill:rgb(55.294118%,82.745098%,78.039216%);fill-opacity:1;stroke-width:0.0811636;stroke-linecap:butt;stroke-linejoin:miter;stroke:rgb(55.294118%,82.745098%,78.039216%);stroke-opacity:1;stroke-miterlimit:10;" d="M 0.405816 -0.0000234613 C 0.405816 0.224118 0.224105 0.40583 -0.0000367325 0.40583 C -0.224095 0.40583 -0.405807 0.224118 -0.405807 -0.0000234613 C -0.405807 -0.224165 -0.224095 -0.405794 -0.0000367325 -0.405794 C 0.224105 -0.405794 0.405816 -0.224165 0.405816 -0.0000234613 Z M 0.405816 -0.0000234613 " transform="matrix(47.228825,0,0,47.228825,220.661891,168.520639)"/>
<path style="fill-rule:nonzero;fill:rgb(100%,92.941176%,43.529412%);fill-opacity:1;stroke-width:0.0811636;stroke-linecap:butt;stroke-linejoin:miter;stroke:rgb(100%,92.941176%,43.529412%);stroke-opacity:1;stroke-miterlimit:10;" d="M 0.405792 0.0000349825 C 0.405792 0.224094 0.224163 0.405805 0.0000214394 0.405805 C -0.22412 0.405805 -0.405832 0.224094 -0.405832 0.0000349825 C -0.405832 -0.224106 -0.22412 -0.405818 0.0000214394 -0.405818 C 0.224163 -0.405818 0.405792 -0.224106 0.405792 0.0000349825 Z M 0.405792 0.0000349825 " transform="matrix(47.228825,0,0,47.228825,40.491175,338.369442)"/>
</g>
</svg>
